<?xml version="1.0" encoding="utf-8"?>
<!-- Generator: Adobe Illustrator 16.0.0, SVG Export Plug-In . SVG Version: 6.00 Build 0)  -->
<!DOCTYPE svg PUBLIC "-//W3C//DTD SVG 1.1//EN" "http://www.w3.org/Graphics/SVG/1.1/DTD/svg11.dtd">
<svg version="1.1" id="Layer_1" xmlns="http://www.w3.org/2000/svg" xmlns:xlink="http://www.w3.org/1999/xlink" x="0px" y="0px"
	 width="50px" height="12.136px" viewBox="0 0 50 12.136" enable-background="new 0 0 50 12.136" xml:space="preserve">
<path fill="#FFFFFF" stroke="#FFFFFF" stroke-width="0.25" stroke-miterlimit="10" d="M7.31,3.595L6.921,3.422L6.783,2.871
	c-0.031-0.123-0.14-0.208-0.265-0.208H3.338c-0.125,0-0.235,0.085-0.266,0.208L2.935,3.422L2.546,3.595
	c-0.099,0.044-0.163,0.142-0.163,0.25v0.909c0,0.147,0.117,0.267,0.263,0.272l0.648,4.496c0.02,0.136,0.134,0.235,0.271,0.235h2.725
	c0.136,0,0.252-0.1,0.271-0.235l0.647-4.496c0.146-0.005,0.264-0.125,0.264-0.272V3.845C7.473,3.737,7.409,3.639,7.31,3.595z
	 M3.279,3.869c0.077-0.034,0.134-0.103,0.154-0.184L3.552,3.21h2.751l0.119,0.474C6.443,3.766,6.5,3.834,6.577,3.869l0.348,0.155
	v0.456H2.931V4.023L3.279,3.869z M6.054,9.21h-2.25L3.2,5.027h3.456L6.054,9.21z"/>
<g>
	<polygon fill="#FFFFFF" stroke="#FFFFFF" stroke-width="0.25" stroke-miterlimit="10" points="5.534,5.894 4.668,5.894 
		4.322,7.142 4.669,7.142 4.374,8.204 4.478,8.204 5.482,6.956 4.974,6.956 	"/>
</g>
<rect x="7.448" y="3.25" fill="none" width="41.267" height="13.103"/>
<text transform="matrix(1 0 0 1 8.3789 9.1094)" fill="#FFFFFF" stroke="#FFFFFF" stroke-width="0.25" stroke-miterlimit="10" font-family="'Comfortaa-Bold'" font-size="7.5">TotalChow</text>
<rect x="8.908" fill="none" width="20.68" height="8.802"/>
</svg>
